<mxfile host="Electron" modified="2023-12-28T06:05:36.244Z" agent="Mozilla/5.0 (Windows NT 10.0; Win64; x64) AppleWebKit/537.36 (KHTML, like Gecko) draw.io/22.1.11 Chrome/114.0.5735.289 Electron/25.9.8 Safari/537.36" etag="cBo5nhWKCRcgbPisKsZe" version="22.1.11" type="device">
  <diagram name="第 1 页" id="PU9rozUjpXACyGjftwHi">
    <mxGraphModel dx="1434" dy="844" grid="1" gridSize="10" guides="1" tooltips="1" connect="1" arrows="1" fold="1" page="1" pageScale="1" pageWidth="827" pageHeight="1169" math="0" shadow="0">
      <root>
        <mxCell id="0" />
        <mxCell id="1" parent="0" />
        <mxCell id="D-9ug4SHQlISLGCykwMP-1" value="Subject" style="swimlane;fontStyle=1;align=center;verticalAlign=top;childLayout=stackLayout;horizontal=1;startSize=26;horizontalStack=0;resizeParent=1;resizeParentMax=0;resizeLast=0;collapsible=1;marginBottom=0;whiteSpace=wrap;html=1;" vertex="1" parent="1">
          <mxGeometry x="284" y="196" width="160" height="138" as="geometry" />
        </mxCell>
        <mxCell id="D-9ug4SHQlISLGCykwMP-2" value="-observers" style="text;strokeColor=none;fillColor=none;align=left;verticalAlign=top;spacingLeft=4;spacingRight=4;overflow=hidden;rotatable=0;points=[[0,0.5],[1,0.5]];portConstraint=eastwest;whiteSpace=wrap;html=1;" vertex="1" parent="D-9ug4SHQlISLGCykwMP-1">
          <mxGeometry y="26" width="160" height="26" as="geometry" />
        </mxCell>
        <mxCell id="D-9ug4SHQlISLGCykwMP-3" value="" style="line;strokeWidth=1;fillColor=none;align=left;verticalAlign=middle;spacingTop=-1;spacingLeft=3;spacingRight=3;rotatable=0;labelPosition=right;points=[];portConstraint=eastwest;strokeColor=inherit;" vertex="1" parent="D-9ug4SHQlISLGCykwMP-1">
          <mxGeometry y="52" width="160" height="8" as="geometry" />
        </mxCell>
        <mxCell id="D-9ug4SHQlISLGCykwMP-4" value="+Attach(Observer)" style="text;strokeColor=none;fillColor=none;align=left;verticalAlign=top;spacingLeft=4;spacingRight=4;overflow=hidden;rotatable=0;points=[[0,0.5],[1,0.5]];portConstraint=eastwest;whiteSpace=wrap;html=1;" vertex="1" parent="D-9ug4SHQlISLGCykwMP-1">
          <mxGeometry y="60" width="160" height="26" as="geometry" />
        </mxCell>
        <mxCell id="D-9ug4SHQlISLGCykwMP-5" value="+Detach(Observer)" style="text;strokeColor=none;fillColor=none;align=left;verticalAlign=top;spacingLeft=4;spacingRight=4;overflow=hidden;rotatable=0;points=[[0,0.5],[1,0.5]];portConstraint=eastwest;whiteSpace=wrap;html=1;" vertex="1" parent="D-9ug4SHQlISLGCykwMP-1">
          <mxGeometry y="86" width="160" height="26" as="geometry" />
        </mxCell>
        <mxCell id="D-9ug4SHQlISLGCykwMP-6" value="+Notify()" style="text;strokeColor=none;fillColor=none;align=left;verticalAlign=top;spacingLeft=4;spacingRight=4;overflow=hidden;rotatable=0;points=[[0,0.5],[1,0.5]];portConstraint=eastwest;whiteSpace=wrap;html=1;" vertex="1" parent="D-9ug4SHQlISLGCykwMP-1">
          <mxGeometry y="112" width="160" height="26" as="geometry" />
        </mxCell>
        <mxCell id="D-9ug4SHQlISLGCykwMP-7" value="ConcreteSubject" style="swimlane;fontStyle=1;align=center;verticalAlign=top;childLayout=stackLayout;horizontal=1;startSize=26;horizontalStack=0;resizeParent=1;resizeParentMax=0;resizeLast=0;collapsible=1;marginBottom=0;whiteSpace=wrap;html=1;" vertex="1" parent="1">
          <mxGeometry x="284" y="394" width="160" height="112" as="geometry" />
        </mxCell>
        <mxCell id="D-9ug4SHQlISLGCykwMP-8" value="-subjectState" style="text;strokeColor=none;fillColor=none;align=left;verticalAlign=top;spacingLeft=4;spacingRight=4;overflow=hidden;rotatable=0;points=[[0,0.5],[1,0.5]];portConstraint=eastwest;whiteSpace=wrap;html=1;" vertex="1" parent="D-9ug4SHQlISLGCykwMP-7">
          <mxGeometry y="26" width="160" height="26" as="geometry" />
        </mxCell>
        <mxCell id="D-9ug4SHQlISLGCykwMP-9" value="" style="line;strokeWidth=1;fillColor=none;align=left;verticalAlign=middle;spacingTop=-1;spacingLeft=3;spacingRight=3;rotatable=0;labelPosition=right;points=[];portConstraint=eastwest;strokeColor=inherit;" vertex="1" parent="D-9ug4SHQlISLGCykwMP-7">
          <mxGeometry y="52" width="160" height="8" as="geometry" />
        </mxCell>
        <mxCell id="D-9ug4SHQlISLGCykwMP-10" value="+GetState()" style="text;strokeColor=none;fillColor=none;align=left;verticalAlign=top;spacingLeft=4;spacingRight=4;overflow=hidden;rotatable=0;points=[[0,0.5],[1,0.5]];portConstraint=eastwest;whiteSpace=wrap;html=1;" vertex="1" parent="D-9ug4SHQlISLGCykwMP-7">
          <mxGeometry y="60" width="160" height="26" as="geometry" />
        </mxCell>
        <mxCell id="D-9ug4SHQlISLGCykwMP-11" value="+SetState()" style="text;strokeColor=none;fillColor=none;align=left;verticalAlign=top;spacingLeft=4;spacingRight=4;overflow=hidden;rotatable=0;points=[[0,0.5],[1,0.5]];portConstraint=eastwest;whiteSpace=wrap;html=1;" vertex="1" parent="D-9ug4SHQlISLGCykwMP-7">
          <mxGeometry y="86" width="160" height="26" as="geometry" />
        </mxCell>
        <mxCell id="D-9ug4SHQlISLGCykwMP-13" value="Observer" style="swimlane;fontStyle=1;align=center;verticalAlign=top;childLayout=stackLayout;horizontal=1;startSize=26;horizontalStack=0;resizeParent=1;resizeParentMax=0;resizeLast=0;collapsible=1;marginBottom=0;whiteSpace=wrap;html=1;" vertex="1" parent="1">
          <mxGeometry x="570" y="226" width="160" height="86" as="geometry" />
        </mxCell>
        <mxCell id="D-9ug4SHQlISLGCykwMP-14" value="#subject" style="text;strokeColor=none;fillColor=none;align=left;verticalAlign=top;spacingLeft=4;spacingRight=4;overflow=hidden;rotatable=0;points=[[0,0.5],[1,0.5]];portConstraint=eastwest;whiteSpace=wrap;html=1;" vertex="1" parent="D-9ug4SHQlISLGCykwMP-13">
          <mxGeometry y="26" width="160" height="26" as="geometry" />
        </mxCell>
        <mxCell id="D-9ug4SHQlISLGCykwMP-15" value="" style="line;strokeWidth=1;fillColor=none;align=left;verticalAlign=middle;spacingTop=-1;spacingLeft=3;spacingRight=3;rotatable=0;labelPosition=right;points=[];portConstraint=eastwest;strokeColor=inherit;" vertex="1" parent="D-9ug4SHQlISLGCykwMP-13">
          <mxGeometry y="52" width="160" height="8" as="geometry" />
        </mxCell>
        <mxCell id="D-9ug4SHQlISLGCykwMP-16" value="+Update()" style="text;strokeColor=none;fillColor=none;align=left;verticalAlign=top;spacingLeft=4;spacingRight=4;overflow=hidden;rotatable=0;points=[[0,0.5],[1,0.5]];portConstraint=eastwest;whiteSpace=wrap;html=1;" vertex="1" parent="D-9ug4SHQlISLGCykwMP-13">
          <mxGeometry y="60" width="160" height="26" as="geometry" />
        </mxCell>
        <mxCell id="D-9ug4SHQlISLGCykwMP-17" value="ConcreteObserver" style="swimlane;fontStyle=1;align=center;verticalAlign=top;childLayout=stackLayout;horizontal=1;startSize=26;horizontalStack=0;resizeParent=1;resizeParentMax=0;resizeLast=0;collapsible=1;marginBottom=0;whiteSpace=wrap;html=1;" vertex="1" parent="1">
          <mxGeometry x="570" y="410" width="160" height="86" as="geometry" />
        </mxCell>
        <mxCell id="D-9ug4SHQlISLGCykwMP-18" value="-observerState" style="text;strokeColor=none;fillColor=none;align=left;verticalAlign=top;spacingLeft=4;spacingRight=4;overflow=hidden;rotatable=0;points=[[0,0.5],[1,0.5]];portConstraint=eastwest;whiteSpace=wrap;html=1;" vertex="1" parent="D-9ug4SHQlISLGCykwMP-17">
          <mxGeometry y="26" width="160" height="26" as="geometry" />
        </mxCell>
        <mxCell id="D-9ug4SHQlISLGCykwMP-19" value="" style="line;strokeWidth=1;fillColor=none;align=left;verticalAlign=middle;spacingTop=-1;spacingLeft=3;spacingRight=3;rotatable=0;labelPosition=right;points=[];portConstraint=eastwest;strokeColor=inherit;" vertex="1" parent="D-9ug4SHQlISLGCykwMP-17">
          <mxGeometry y="52" width="160" height="8" as="geometry" />
        </mxCell>
        <mxCell id="D-9ug4SHQlISLGCykwMP-20" value="+Update()" style="text;strokeColor=none;fillColor=none;align=left;verticalAlign=top;spacingLeft=4;spacingRight=4;overflow=hidden;rotatable=0;points=[[0,0.5],[1,0.5]];portConstraint=eastwest;whiteSpace=wrap;html=1;" vertex="1" parent="D-9ug4SHQlISLGCykwMP-17">
          <mxGeometry y="60" width="160" height="26" as="geometry" />
        </mxCell>
        <mxCell id="D-9ug4SHQlISLGCykwMP-24" style="edgeStyle=none;rounded=0;orthogonalLoop=1;jettySize=auto;html=1;exitX=0;exitY=0;exitDx=170;exitDy=65;exitPerimeter=0;endArrow=none;endFill=0;dashed=1;" edge="1" parent="1" source="D-9ug4SHQlISLGCykwMP-21" target="D-9ug4SHQlISLGCykwMP-1">
          <mxGeometry relative="1" as="geometry" />
        </mxCell>
        <mxCell id="D-9ug4SHQlISLGCykwMP-21" value="function Notify(){&lt;br&gt;&amp;nbsp; &amp;nbsp; observers.foreach(o){&lt;br&gt;&amp;nbsp; &amp;nbsp; &amp;nbsp; &amp;nbsp; o.Update();&lt;br&gt;&amp;nbsp; &amp;nbsp; }&lt;br&gt;}" style="shape=note;whiteSpace=wrap;html=1;backgroundOutline=1;darkOpacity=0.05;align=left;spacingLeft=4;spacingRight=4;" vertex="1" parent="1">
          <mxGeometry x="10" y="196" width="170" height="100" as="geometry" />
        </mxCell>
        <mxCell id="D-9ug4SHQlISLGCykwMP-25" style="edgeStyle=none;rounded=0;orthogonalLoop=1;jettySize=auto;html=1;exitX=0;exitY=0;exitDx=170;exitDy=65;exitPerimeter=0;endArrow=none;endFill=0;dashed=1;" edge="1" parent="1" source="D-9ug4SHQlISLGCykwMP-22" target="D-9ug4SHQlISLGCykwMP-7">
          <mxGeometry relative="1" as="geometry" />
        </mxCell>
        <mxCell id="D-9ug4SHQlISLGCykwMP-22" value="function GetState(){&lt;br&gt;&amp;nbsp; &amp;nbsp; return subjectState;&lt;br&gt;}" style="shape=note;whiteSpace=wrap;html=1;backgroundOutline=1;darkOpacity=0.05;align=left;spacingLeft=4;spacingRight=4;" vertex="1" parent="1">
          <mxGeometry x="10" y="380" width="170" height="100" as="geometry" />
        </mxCell>
        <mxCell id="D-9ug4SHQlISLGCykwMP-26" style="edgeStyle=none;rounded=0;orthogonalLoop=1;jettySize=auto;html=1;exitX=0;exitY=0.5;exitDx=0;exitDy=0;endArrow=open;endFill=0;" edge="1" parent="1" source="D-9ug4SHQlISLGCykwMP-18" target="D-9ug4SHQlISLGCykwMP-7">
          <mxGeometry relative="1" as="geometry" />
        </mxCell>
        <mxCell id="D-9ug4SHQlISLGCykwMP-27" style="edgeStyle=none;rounded=0;orthogonalLoop=1;jettySize=auto;html=1;exitX=0;exitY=0.5;exitDx=0;exitDy=0;endArrow=diamondThin;endFill=1;" edge="1" parent="1" source="D-9ug4SHQlISLGCykwMP-14" target="D-9ug4SHQlISLGCykwMP-1">
          <mxGeometry relative="1" as="geometry" />
        </mxCell>
        <mxCell id="D-9ug4SHQlISLGCykwMP-29" style="edgeStyle=none;rounded=0;orthogonalLoop=1;jettySize=auto;html=1;exitX=0.5;exitY=0;exitDx=0;exitDy=0;exitPerimeter=0;dashed=1;endArrow=none;endFill=0;" edge="1" parent="1" source="D-9ug4SHQlISLGCykwMP-28" target="D-9ug4SHQlISLGCykwMP-17">
          <mxGeometry relative="1" as="geometry" />
        </mxCell>
        <mxCell id="D-9ug4SHQlISLGCykwMP-28" value="observerState = subject.GetState();" style="shape=note;whiteSpace=wrap;html=1;backgroundOutline=1;darkOpacity=0.05;spacingLeft=4;spacingRight=4;" vertex="1" parent="1">
          <mxGeometry x="510" y="550" width="280" height="50" as="geometry" />
        </mxCell>
      </root>
    </mxGraphModel>
  </diagram>
</mxfile>
